<?xml version="1.0" encoding="UTF-8"?>
<svg data-bbox="0.05 0.42 270.48 140.104" viewBox="0 0 270.55 140.46" xmlns="http://www.w3.org/2000/svg" data-type="ugc">
    <g>
        <defs>
            <clipPath transform="translate(-3.39 -1.77)" id="4bc617cc-5709-4a73-82f9-56ee81f233d9">
                <path d="M272.61 1.77v139.8H2.06V1.77h270.55z"/>
            </clipPath>
            <clipPath transform="translate(-3.39 -1.77)" id="a85182d3-b9bd-4fd1-9447-f891f27df655">
                <path d="M273.94 2.44v139.8H3.39V2.44h270.55z"/>
            </clipPath>
        </defs>
        <path fill="#ffffff" d="M167.81.64v66.91h-67.03V.64h67.03z"/>
        <path fill="#ffffff" d="M165.79 2.5v63.12h-63.12V2.5h63.12z"/>
        <g clip-path="url(#4bc617cc-5709-4a73-82f9-56ee81f233d9)">
            <path fill="none" stroke="#9fa1a4" stroke-width=".835" d="M100.59 2.5v65.2h67.28V.42h-67.28V2.5z"/>
            <path fill="none" stroke="#9fa1a4" stroke-width="2.5" d="M164.54 3.75v60.62h-60.62V3.75h60.62z"/>
        </g>
        <path fill="none" stroke="#9fa1a4" stroke-width=".422" d="M104.15 12.32h48.77"/>
        <path fill="none" stroke="#9fa1a4" stroke-width=".422" d="M105.14 23.68h58.54"/>
        <path fill="none" stroke="#9fa1a4" stroke-width=".422" d="M163.72 61.54h-58.75"/>
        <path fill="none" stroke="#9fa1a4" stroke-width=".422" d="M163.6 59.65h-58.51"/>
        <path fill="none" stroke="#9fa1a4" stroke-width=".422" d="M164.07 57.75h-59.66"/>
        <path fill="none" stroke="#9fa1a4" stroke-width=".422" d="M163.41 55.86h-58.87"/>
        <path fill="none" stroke="#9fa1a4" stroke-width=".422" d="M163.6 53.97h-58.51"/>
        <path fill="none" stroke="#9fa1a4" stroke-width=".422" d="M104.97 8.53h57.35"/>
        <path fill="none" stroke="#9fa1a4" stroke-width=".422" d="M104.15 10.43h48.77"/>
        <path fill="none" stroke="#9fa1a4" stroke-width=".422" d="M105.27 14.21h52.2"/>
        <path fill="none" stroke="#9fa1a4" stroke-width=".422" d="M103.86 44.5h60.62"/>
        <path fill="none" stroke="#9fa1a4" stroke-width=".422" d="M104.92 46.39h59.03"/>
        <path fill="none" stroke="#9fa1a4" stroke-width=".422" d="M104.66 48.29h58.94"/>
        <path fill="none" stroke="#9fa1a4" stroke-width=".422" d="M104.54 50.18h58.71"/>
        <path fill="none" stroke="#9fa1a4" stroke-width=".422" d="M104.74 52.07h59.45"/>
        <path fill="none" stroke="#9fa1a4" stroke-width=".422" d="M103.46 35.04h61.43"/>
        <path fill="none" stroke="#9fa1a4" stroke-width=".422" d="M103.81 36.93h60.61"/>
        <path fill="none" stroke="#9fa1a4" stroke-width=".422" d="M103.46 38.82h62.07"/>
        <path fill="none" stroke="#9fa1a4" stroke-width=".422" d="M103.92 40.72h60.5"/>
        <path fill="none" stroke="#9fa1a4" stroke-width=".422" d="M103.69 42.61h61.14"/>
        <path fill="none" stroke="#9fa1a4" stroke-width=".422" d="M103.65 25.57h60.62"/>
        <path fill="none" stroke="#9fa1a4" stroke-width=".422" d="M103.69 27.46h61.14"/>
        <path fill="none" stroke="#9fa1a4" stroke-width=".422" d="M103.34 29.36h61.84"/>
        <path fill="none" stroke="#9fa1a4" stroke-width=".422" d="M103.22 31.25h61.32"/>
        <path fill="none" stroke="#9fa1a4" stroke-width=".422" d="M103.81 33.14h60.96"/>
        <path fill="none" stroke="#9fa1a4" stroke-width=".422" d="M105.44 21.78h57.58"/>
        <path fill="none" stroke="#9fa1a4" stroke-width=".422" d="M105.14 6.64h58.35"/>
        <path fill="#ffffff" d="m163.3 31.02-21.77-11.54-.05-3.42L163.3 5.01v26.01z"/>
        <path fill="#ffffff" d="m105.15 30.82 22.54-11.02v-3.9L105.15 5.01v25.81z"/>
        <g clip-path="url(#4bc617cc-5709-4a73-82f9-56ee81f233d9)">
            <path d="M139.75 10.56c-.18-.79-1.5-1.41-3.43-1.58a1.27 1.27 0 0 0-1.08-.63 1.23 1.23 0 0 0-1 .63c-2 .15-3.46.8-3.65 1.6v1c-1.78.57-3.22 1.44-3.37 2.5v7.81h15v-7.94c-.12-.87-1.14-1.83-2.42-2.4v-.99" fill="#9fa1a4"/>
            <path d="M139.75 10.56c-.18-.79-1.5-1.41-3.43-1.58a1.27 1.27 0 0 0-1.08-.63 1.23 1.23 0 0 0-1 .63c-2 .15-3.46.8-3.65 1.6v1c-1.78.57-3.22 1.44-3.37 2.5v7.81h15v-7.94c-.12-.87-1.14-1.83-2.42-2.4v-.8Z" fill="none" stroke="#9fa1a4" stroke-width=".9"/>
            <path d="M135.61 17.91c.95 0 1.72-1.15 1.72-2.56s-.77-2.57-1.72-2.57-1.73 1.15-1.73 2.57.78 2.56 1.73 2.56" fill="#ffffff"/>
            <path d="M135.61 17.91c.95 0 1.72-1.15 1.72-2.56s-.77-2.57-1.72-2.57-1.73 1.15-1.73 2.57.73 2.56 1.73 2.56Z" fill="none" stroke="#ffffff" stroke-width=".506"/>
            <path d="M124 25.63c-.1-2.76 4.6-5.13 10.27-5.33s10.19 2.1 10.28 4.86c0 5-4.43 4.26-10.11 4.46s-10.35-1.24-10.44-4" fill="#ffffff"/>
            <path d="M124 25.63c-.1-2.76 4.6-5.13 10.27-5.33s10.19 2.1 10.28 4.86c0 5-4.43 4.26-10.11 4.46s-10.35-1.24-10.44-3.99Z" fill="none" stroke="#ffffff" stroke-miterlimit="10" stroke-width=".9"/>
            <path d="M144.55 26.12c0-2.54-4.6-4.61-10.26-4.61s-10.26 2.07-10.26 4.61c0 1.17 1 2.22 2.56 3l-6.17 34.92h27.27l-5.33-35.11c1.37-.79 2.19-1.77 2.19-2.85" fill="#9fa1a4"/>
            <path d="M144.55 26.12c0-2.54-4.6-4.61-10.26-4.61s-10.26 2.07-10.26 4.61c0 1.17 1 2.22 2.56 3l-6.17 34.92h27.27l-5.33-35.11c1.37-.7 2.19-1.7 2.19-2.81Z" fill="none" stroke="#9fa1a4" stroke-miterlimit="3.864" stroke-width=".9"/>
            <path d="M129.67 26.82s7.69-1.83 10.43.81c1.7 1.65 1.54 12.25 1.54 12.25s-1.92 13.71-17.75 23.18Z" fill="#ffffff"/>
        </g>
        <g clip-path="url(#a85182d3-b9bd-4fd1-9447-f891f27df655)">
            <path d="M253.36 101.45h.08c.45.48 3.27 3.64 6 6.37s5.88 5.93 7.47 7.45c.28.27.58.55.86.55s.33-.22.33-.78l.28-16c0-1.42.23-2 .94-2.16a2.91 2.91 0 0 1 .75-.07c.31 0 .46-.08.46-.23s-.25-.23-.58-.23c-1.24 0-2.2.08-2.48.08-.53 0-1.75-.08-3.07-.08-.37 0-.65 0-.65.23s.1.23.4.23a4.15 4.15 0 0 1 1.34.15c.61.25.84.73.86 2.28l.26 11.39h-.13c-.43-.4-3.85-4.05-5.57-5.77-3.69-3.67-7.54-7.79-7.85-8.12s-.65-.79-.93-.79-.33.36-.33.86l-.23 15c0 2.2-.13 2.93-.78 3.14a4.56 4.56 0 0 1-1.14.12c-.26 0-.41 0-.41.21s.23.25.56.25c1.32 0 2.51-.08 2.73-.08.49 0 1.5.08 3.14.08.36 0 .58-.05.58-.25s-.15-.21-.43-.21a4 4 0 0 1-1.31-.17c-.51-.18-.84-.84-.89-2.81Zm-19 13.16c-4.86 0-7.77-4.18-7.77-9.44 0-6.31 3.32-7.93 6.23-7.93 4.15 0 7.41 3.52 7.41 9.19 0 7.32-4.1 8.18-5.87 8.18m-1.06 1.26c6.43 0 10.48-4.58 10.48-10.37s-3.93-9.47-10.23-9.47c-7.59 0-10.45 5.59-10.45 9.92 0 4.48 2.93 9.92 10.2 9.92m-22.91 0a7.34 7.34 0 0 0 4-1 5.11 5.11 0 0 0 2.38-4.41c0-2.4-1.12-4.1-4.16-6.45l-.71-.53c-2.1-1.6-2.68-2.49-2.68-3.65 0-1.52 1.14-2.61 3-2.61a3.2 3.2 0 0 1 2.76 1.24 3 3 0 0 1 .66 1.67c0 .31.08.46.25.46s.28-.2.28-.76c0-2 .1-2.71.1-3 0-.17-.12-.25-.35-.3a12.16 12.16 0 0 0-3.31-.5c-3.52 0-5.84 2-5.84 4.78 0 2 1 3.82 3.74 6l1.17.91c2.1 1.62 2.48 2.81 2.48 4.05a3.09 3.09 0 0 1-3.4 2.89 3.48 3.48 0 0 1-3.61-2.56 5.18 5.18 0 0 1-.23-1.29c0-.2 0-.43-.26-.43s-.27.28-.3.66-.13 1.92-.13 3.32c0 .55.08.68.48.86a8.81 8.81 0 0 0 3.7.65m-21.12-17.84c0-.2 0-.31.23-.36a5.89 5.89 0 0 1 1.34-.1c1.5 0 3.87 1 3.87 4.63 0 2.08-.73 3.24-1.49 3.8a2.51 2.51 0 0 1-1.8.43 6.56 6.56 0 0 1-1.92-.25c-.18-.08-.23-.18-.23-.46Zm-3 10.15c0 2.33 0 4.33-.13 5.39-.1.73-.23 1.29-.73 1.39a4.28 4.28 0 0 1-.92.1c-.3 0-.4.08-.4.21s.18.25.51.25c1 0 2.6-.08 3.08-.08s2.26.08 3.72.08c.33 0 .51-.08.51-.25s-.1-.21-.3-.21a11.65 11.65 0 0 1-1.24-.1c-.76-.1-.91-.66-1-1.39-.13-1.06-.13-3.06-.13-5.42v-.35c0-.15.08-.2.21-.2h2.2a.51.51 0 0 1 .45.17c.33.38 1.5 2.11 2.51 3.5 1.42 2 2.38 3.14 3.47 3.72a5.2 5.2 0 0 0 2.71.48h2.4c.3 0 .48-.05.48-.25s-.1-.21-.3-.21a3.94 3.94 0 0 1-.71-.07 5.13 5.13 0 0 1-2.84-1.72c-1.49-1.57-3.24-3.83-5.49-6.66 2.56-2.08 3.34-3.8 3.34-5.67a4.38 4.38 0 0 0-1.72-3.47 8.07 8.07 0 0 0-4.66-1.09c-.78 0-2.71.08-3.57.08-.53 0-2.12-.08-3.46-.08-.38 0-.56 0-.56.23s.15.23.43.23a5.45 5.45 0 0 1 1 .07c.83.18 1 .59 1.09 1.45s0 1.52 0 5.36Zm-19 0c0 2.33 0 4.33-.13 5.39-.1.73-.22 1.29-.73 1.39a4.18 4.18 0 0 1-.91.1c-.3 0-.41.08-.41.21s.18.25.51.25c1 0 2.61-.08 3.19-.08 1.49 0 3.19.16 7 .16 1 0 1.19 0 1.37-.66a19.46 19.46 0 0 0 .33-2.81c0-.26 0-.46-.2-.46s-.23.1-.28.38c-.18 1-.48 1.57-1.14 1.87a6.3 6.3 0 0 1-2.38.31c-2.58 0-3-.38-3-2.13v-5.92c0-.15 0-.25.15-.25.61 0 3.12 0 3.6.07.93.1 1.29.48 1.42 1a9 9 0 0 1 .1.91c0 .13 0 .23.22.23s.23-.28.23-.48.05-1.19.1-1.7c.08-1.29.2-1.69.2-1.85s-.07-.2-.17-.2-.23.13-.41.33a1.76 1.76 0 0 1-1.21.38c-.58.05-3.5.05-4.05.05-.15 0-.18-.1-.18-.28v-6.4c0-.18.05-.26.18-.26.5 0 3.16.06 3.59.11 1.27.15 1.52.45 1.7.91a2.85 2.85 0 0 1 .15.91c0 .23.05.35.23.35s.23-.15.25-.28c.05-.3.1-1.41.13-1.67a14.85 14.85 0 0 1 .2-1.64c0-.13 0-.23-.15-.23a3.06 3.06 0 0 0-.41.1 9.82 9.82 0 0 1-1.09.15h-6.32c-.81 0-2.31-.08-3.65-.08-.38 0-.56 0-.56.23s.16.23.43.23a5.31 5.31 0 0 1 1 .07c.84.18 1 .59 1.09 1.45s0 1.52 0 5.36Zm-23.32-4.86v-5.06a.46.46 0 0 1 .3-.51 6.8 6.8 0 0 1 1.65-.18 10.08 10.08 0 0 1 7.19 2.53 8.66 8.66 0 0 1 2.43 6.33c0 2.61-.51 4.91-2.13 6.3s-3.24 1.83-5.82 1.83c-2 0-3-.53-3.32-1a5.65 5.65 0 0 1-.28-1.92v-5.11Zm-3.18 4.91c0 2.33 0 4.33-.13 5.39-.1.73-.23 1.29-.73 1.39a4.18 4.18 0 0 1-.91.1c-.31 0-.41.08-.41.21s.18.25.51.25c1 0 2.61-.08 3.19-.08 1.26 0 3.54.31 5.39.31 4.68 0 7.31-1.8 8.48-3a10 10 0 0 0 2.76-7.06 9 9 0 0 0-2.46-6.43c-2.76-2.89-7-2.89-10.15-2.89-1.52 0-3.11.08-3.9.08s-2.3-.08-3.64-.08c-.38 0-.56 0-.56.23s.15.23.43.23a5.31 5.31 0 0 1 1 .07c.83.18 1 .59 1.09 1.45s.05 1.52.05 5.36Zm-25.87-6.73h.08c.45.48 3.26 3.64 6 6.37s5.87 5.93 7.47 7.45c.28.27.58.55.86.55s.33-.22.33-.78l.28-16c0-1.42.22-2 .93-2.16a3 3 0 0 1 .76-.07c.3 0 .46-.08.46-.23s-.26-.23-.59-.23c-1.24 0-2.2.08-2.48.08-.53 0-1.74-.08-3.06-.08-.38 0-.66 0-.66.23s.1.23.41.23a4.18 4.18 0 0 1 1.34.15c.61.25.83.73.86 2.28l.25 11.36h-.12c-.43-.4-3.85-4.05-5.57-5.77-3.7-3.67-7.55-7.79-7.85-8.12s-.66-.79-.94-.79-.32.36-.32.86l-.23 15c0 2.2-.13 2.93-.79 3.14a4.52 4.52 0 0 1-1.14.12c-.25 0-.4 0-.4.21s.23.25.56.25c1.31 0 2.5-.08 2.73-.08.48 0 1.49.08 3.14.08.35 0 .58-.05.58-.25s-.15-.21-.43-.21a4.1 4.1 0 0 1-1.32-.17c-.5-.18-.83-.84-.88-2.81Zm-20.38 6.2c-.1 0-.12-.08-.1-.18l2.33-6.23c0-.1.08-.22.15-.22s.1.12.13.22l2.28 6.26c0 .07 0 .15-.13.15Zm5.14 1.26a.24.24 0 0 1 .25.18l2 5.37a.41.41 0 0 1-.23.58c-.25 0-.35.07-.35.23s.3.17.76.2c2 .05 3.87.05 4.78.05s1.17-.05 1.17-.25-.13-.21-.33-.21a5.26 5.26 0 0 1-1.07-.1c-.53-.12-1.26-.48-2.22-2.76-1.62-3.84-5.67-14.17-6.28-15.56-.26-.59-.41-.81-.63-.81s-.41.28-.71 1l-6.33 15.85c-.5 1.27-1 2.13-2.15 2.28a6.53 6.53 0 0 1-.78 0c-.21 0-.31 0-.31.21s.15.25.48.25c1.32 0 2.71-.08 3-.08.79 0 1.87.08 2.68.08.28 0 .43-.05.43-.25s-.07-.21-.38-.21h-.38c-.78 0-1-.33-1-.78a5.1 5.1 0 0 1 .38-1.55l1.37-3.61c0-.16.1-.21.23-.21Zm-22.7-4.48c-.43 0-.54 0-.61.33l-.38 1.75c0 .25 0 .45.2.45s.61-.27 1.12-.4c.88-.25 5.51-1 6.53-1.22.7-.1 1.14-.2 1.14-.55s-.36-.36-.81-.36Zm-12.94-.71v-5.36c0-.81.26-1.32.94-1.45a6.78 6.78 0 0 1 1-.07c.3 0 .45 0 .45-.23s-.18-.23-.53-.23c-1 0-2.83.08-3.44.08s-2.28-.08-3.47-.08c-.38 0-.56 0-.56.23s.15.23.43.23a3.87 3.87 0 0 1 .84.07c.83.18 1 .59 1.09 1.45s0 1.52 0 5.36v4.46c0 2.33 0 4.33-.13 5.39-.1.73-.23 1.29-.73 1.39a4.18 4.18 0 0 1-.91.1c-.31 0-.41.08-.41.21s.18.25.51.25c1 0 2.6-.08 3.19-.08 2 0 3.72.16 7.36.16 1.32 0 1.45-.13 1.6-.69a20.23 20.23 0 0 0 .38-2.91c0-.3 0-.43-.21-.43s-.25.15-.27.38a3.22 3.22 0 0 1-.66 1.52c-.64.68-1.62.71-3 .71-2 0-2.64-.18-3.07-.56s-.53-2.2-.53-5.44Zm-18.35 0c0-3.84 0-4.55.05-5.36s.25-1.32.94-1.45a6.75 6.75 0 0 1 1-.07c.31 0 .46 0 .46-.23s-.18-.23-.53-.23c-1 0-2.84.08-3.44.08s-2.28-.08-3.47-.08c-.38 0-.56 0-.56.23s.15.23.43.23a3.93 3.93 0 0 1 .84.07c.83.18 1 .59 1.09 1.45s.05 1.52.05 5.36v4.46c0 2.33 0 4.33-.13 5.39-.1.73-.23 1.29-.73 1.39a4.28 4.28 0 0 1-.92.1c-.3 0-.4.08-.4.21s.18.25.51.25c1 0 2.6-.08 3.19-.08 2.05 0 3.72.16 7.36.16 1.32 0 1.44-.13 1.6-.69a20.23 20.23 0 0 0 .38-2.91c0-.3 0-.43-.21-.43s-.25.15-.28.38a3.21 3.21 0 0 1-.65 1.52c-.64.68-1.62.71-3 .71-2 0-2.63-.18-3.06-.56s-.53-2.2-.53-5.44Zm-22.2 4.46c0 2.33 0 4.33-.12 5.39-.11.73-.23 1.29-.74 1.39a4.18 4.18 0 0 1-.91.1c-.3 0-.41.08-.41.21s.18.25.51.25c1 0 2.61-.08 3.19-.08 1.49 0 3.19.16 7 .16 1 0 1.19 0 1.37-.66a19.46 19.46 0 0 0 .33-2.81c0-.26 0-.46-.2-.46s-.23.1-.28.38c-.18 1-.48 1.57-1.14 1.87a6.3 6.3 0 0 1-2.38.31c-2.58 0-3-.38-3-2.13v-5.92c0-.15 0-.25.15-.25.61 0 3.12 0 3.6.07.93.1 1.29.48 1.41 1a7 7 0 0 1 .11.91c0 .13 0 .23.22.23s.23-.28.23-.48.05-1.19.1-1.7c.08-1.29.21-1.69.21-1.85s-.08-.2-.18-.2-.23.13-.41.33-.6.33-1.21.38-3.49.05-4 .05c-.15 0-.18-.1-.18-.28v-6.4c0-.18.05-.26.18-.26.5 0 3.16.06 3.59.11 1.27.15 1.52.45 1.7.91a2.59 2.59 0 0 1 .15.91c0 .23.05.35.23.35s.23-.15.25-.28c0-.3.1-1.41.13-1.67a14.85 14.85 0 0 1 .2-1.64c0-.13 0-.23-.15-.23a3.06 3.06 0 0 0-.41.1 9.92 9.92 0 0 1-1.08.15h-6.33c-.81 0-2.31-.08-3.65-.08-.38 0-.55 0-.55.23s.15.23.43.23a5.26 5.26 0 0 1 1 .07c.84.18 1 .59 1.09 1.45s.05 1.52.05 5.36Zm-12.1 3a3 3 0 0 1-3.06 3.24 4.58 4.58 0 0 1-1.85-.31c-.81-.33-.88-.76-.88-2.43v-6c0-.12 0-.17.15-.17h1.09a3.64 3.64 0 0 1 2.1.61 6 6 0 0 1 2.45 5M5.61 97.9c0-.28 0-.38.22-.43a4.21 4.21 0 0 1 .84 0c2.18 0 3.16 2.23 3.16 3.92a3.34 3.34 0 0 1-1 2.69 2.59 2.59 0 0 1-1.83.48 6.17 6.17 0 0 1-1.19-.08c-.1 0-.17-.07-.17-.28Zm-3 10.33c0 2.33 0 4.33-.13 5.39-.1.73-.23 1.29-.73 1.39a4.18 4.18 0 0 1-.91.1c-.31 0-.41.08-.41.21s.18.25.51.25c1 0 2.61-.08 3.19-.08.76 0 3.06.16 3.67.16 4.66 0 6.76-2.81 6.76-5.52 0-3-2.54-4.76-4.61-5.47 1.39-1.11 2.58-2.35 2.58-4.43 0-1.34-.81-3.8-5.39-3.8-.86 0-1.85.08-3.09.08-.5 0-2.1-.08-3.44-.08-.38 0-.56 0-.56.23s.15.23.43.23a5.31 5.31 0 0 1 1 .07c.83.18 1 .59 1.09 1.45s0 1.52 0 5.36Z" fill="#005288"/>
            <path d="M183.95 136.08c0 1.33 0 2.47-.07 3.07-.06.42-.13.74-.42.8a3.14 3.14 0 0 1-.52.05c-.17 0-.23 0-.23.12s.1.14.29.14h1.81c.85 0 1.82.08 4 .08.55 0 .68 0 .78-.37a11.68 11.68 0 0 0 .18-1.6c0-.14 0-.26-.11-.26s-.13.06-.16.22c-.1.59-.27.89-.65 1.06a3.47 3.47 0 0 1-1.35.18c-1.47 0-1.7-.22-1.73-1.21v-3.37c0-.09 0-.15.09-.15.34 0 1.77 0 2 .05.54 0 .74.27.81.56s0 .37.06.52a.12.12 0 0 0 .13.13c.13 0 .13-.16.13-.28s0-.67.05-1c0-.74.12-1 .12-1.05s0-.12-.1-.12-.13.07-.23.19a1 1 0 0 1-.69.21h-2.31c-.08 0-.1 0-.1-.15v-3.65c0-.1 0-.14.1-.14.29 0 1.8 0 2.05.05.72.09.86.26 1 .52a1.38 1.38 0 0 1 .09.52c0 .13 0 .2.13.2s.13-.08.14-.16.06-.8.07-.95c.05-.66.12-.83.12-.93s0-.13-.09-.13a1 1 0 0 0-.23.06 5.75 5.75 0 0 1-.62.08h-3.6c-.46 0-1.31-.05-2.07-.05-.22 0-.32 0-.32.14s.09.12.25.12a2.75 2.75 0 0 1 .56 0c.48.1.59.33.62.82s0 .86 0 3Zm-8.09 4.38a8.37 8.37 0 0 0 2.59-.33.5.5 0 0 0 .37-.42 12.94 12.94 0 0 0 .32-1.91c0-.12 0-.22-.13-.22s-.14.06-.19.29a2.34 2.34 0 0 1-.49 1c-.57.66-1.35.81-2.63.81a5.39 5.39 0 0 1-3.22-8.86 3.76 3.76 0 0 1 2.71-.89 4.34 4.34 0 0 1 2.93.89 2.08 2.08 0 0 1 .56 1.33c0 .2 0 .31.14.31s.16-.11.17-.33 0-1.08.05-1.56.07-.67.07-.79-.06-.15-.22-.17c-.43 0-.89-.17-1.44-.24a13.57 13.57 0 0 0-2.08-.15 6.31 6.31 0 0 0-4.56 1.53 5.7 5.7 0 0 0 .11 8.19 7.18 7.18 0 0 0 4.94 1.57m-19.8-8.28c.26.28 1.86 2.08 3.43 3.63s3.34 3.37 4.24 4.24c.16.15.33.31.49.31s.19-.13.19-.44l.16-9.09c0-.81.13-1.11.53-1.22a1.36 1.36 0 0 1 .43 0c.17 0 .26 0 .26-.13s-.14-.13-.33-.13c-.71 0-1.25.05-1.41.05s-1-.05-1.74-.05c-.22 0-.38 0-.38.13s.06.13.23.13a2.32 2.32 0 0 1 .77.09c.34.14.47.42.49 1.3l.14 6.46h-.07c-.25-.23-2.19-2.3-3.17-3.28-2.1-2.09-4.29-4.44-4.46-4.63s-.38-.44-.54-.44-.18.2-.18.49l-.13 8.52c0 1.26-.07 1.67-.45 1.79a2.44 2.44 0 0 1-.65.07c-.14 0-.23 0-.23.12s.13.14.32.14h3.34c.2 0 .33 0 .33-.14s-.09-.12-.25-.12a2.22 2.22 0 0 1-.75-.1c-.28-.1-.47-.47-.5-1.6Zm-11.6 3.53c-.06 0-.07 0-.06-.1l1.33-3.54c0-.06 0-.13.09-.13s0 .07.07.13l1.29 3.56s0 .08-.07.08Zm2.92.72a.14.14 0 0 1 .15.1l1.15 3.06a.24.24 0 0 1-.13.33c-.14 0-.2 0-.2.13s.17.1.43.11h2.72c.52 0 .67 0 .67-.14s-.08-.12-.19-.12a3.41 3.41 0 0 1-.61-.05c-.3-.08-.72-.28-1.26-1.58-.93-2.18-3.23-8.06-3.58-8.85-.14-.33-.23-.46-.36-.46s-.23.16-.4.57l-3.61 9c-.29.72-.56 1.21-1.23 1.29a3 3 0 0 1-.44 0c-.12 0-.17 0-.17.12s.08.14.27.14h3.22c.16 0 .25 0 .25-.14s0-.12-.22-.12h-.23c-.45 0-.58-.19-.58-.44a2.63 2.63 0 0 1 .22-.88l.77-2.06c0-.09.06-.12.13-.12Zm-14.68-6.19c0-.12 0-.17.13-.2a2.77 2.77 0 0 1 .76-.06c.85 0 2.2.59 2.2 2.64a2.52 2.52 0 0 1-.85 2.16 1.47 1.47 0 0 1-1 .24 3.78 3.78 0 0 1-1.09-.14c-.11-.05-.13-.1-.13-.26Zm-1.7 5.77c0 1.33 0 2.47-.07 3.07-.06.42-.13.74-.42.8a3.14 3.14 0 0 1-.52.05c-.17 0-.23 0-.23.12s.1.14.29.14h3.87c.19 0 .29 0 .29-.14s-.06-.12-.18-.12-.48 0-.7-.05c-.43-.06-.52-.38-.56-.8-.07-.6-.07-1.74-.07-3.08v-.2c0-.09 0-.12.11-.12h1.25a.31.31 0 0 1 .26.1c.19.22.85 1.2 1.43 2a7 7 0 0 0 2 2.12 3 3 0 0 0 1.54.27h1.32c.17 0 .27 0 .27-.14s0-.12-.17-.12a2.15 2.15 0 0 1-.4 0 2.89 2.89 0 0 1-1.62-1c-.84-.89-1.84-2.18-3.12-3.79 1.46-1.18 1.9-2.16 1.9-3.22a2.49 2.49 0 0 0-1-2 4.61 4.61 0 0 0-2.65-.62c-.44 0-1.54.05-2 .05-.3 0-1.21-.05-2-.05-.21 0-.32 0-.32.13s.09.13.25.13a2.83 2.83 0 0 1 .56 0c.48.1.59.33.62.82s0 .86 0 3Zm-14.62-.43c0 2.09.55 3.16 1.28 3.82a4.64 4.64 0 0 0 3.2 1 4.34 4.34 0 0 0 3-1c1.2-1 1.36-2.74 1.36-4.34v-4.54c0-.41.15-.75.53-.82a2.18 2.18 0 0 1 .42 0c.18 0 .26 0 .26-.13s-.1-.13-.3-.13c-.56 0-1.47.05-1.64.05 0 0-.92-.05-1.66-.05-.2 0-.3 0-.3.13s.09.13.24.13a2.62 2.62 0 0 1 .52 0c.48.1.59.33.62.82s0 .86 0 3v1.8c0 1.48 0 2.78-.83 3.57a2.82 2.82 0 0 1-2 .78 2.68 2.68 0 0 1-1.8-.59c-.71-.58-1.13-1.46-1.13-3.54v-5c0-.41.15-.75.54-.82a2.08 2.08 0 0 1 .41 0c.15 0 .23 0 .23-.13s-.1-.13-.31-.13c-.52 0-1.43.05-1.77.05s-1.34-.05-2.11-.05c-.21 0-.31 0-.31.13s.08.13.24.13a2.68 2.68 0 0 1 .56 0c.48.1.59.33.62.82s0 .86 0 3Zm-8.18 4.81a4.15 4.15 0 0 0 2.29-.59 2.88 2.88 0 0 0 1.35-2.5c0-1.37-.63-2.34-2.36-3.68l-.4-.3c-1.2-.91-1.53-1.41-1.53-2.07a1.52 1.52 0 0 1 1.72-1.49 1.83 1.83 0 0 1 1.57.71 1.73 1.73 0 0 1 .37.95c0 .17.05.26.15.26s.15-.12.15-.43c0-1.13.06-1.54.06-1.73s-.07-.14-.2-.17a6.91 6.91 0 0 0-1.91-.25c-2 0-3.33 1.14-3.33 2.72 0 1.17.55 2.18 2.13 3.42l.66.52c1.2.92 1.42 1.59 1.42 2.3a1.76 1.76 0 0 1-1.94 1.64 2 2 0 0 1-2.06-1.45 3.21 3.21 0 0 1-.13-.74c0-.11 0-.24-.14-.24s-.16.16-.17.37-.07 1.1-.07 1.89c0 .32 0 .39.27.49a5.05 5.05 0 0 0 2.1.37m-16-8.21c.26.28 1.86 2.08 3.43 3.63s3.34 3.37 4.25 4.24c.15.15.32.31.48.31s.19-.13.19-.44l.16-9.09c0-.81.13-1.11.53-1.22a1.36 1.36 0 0 1 .43 0c.18 0 .26 0 .26-.13s-.14-.13-.33-.13c-.7 0-1.25.05-1.41.05s-1-.05-1.74-.05c-.22 0-.37 0-.37.13s.05.13.23.13a2.26 2.26 0 0 1 .76.09c.34.14.47.42.49 1.3l.14 6.46h-.09c-.24-.23-2.19-2.3-3.17-3.28-2.1-2.09-4.29-4.44-4.46-4.63s-.37-.44-.53-.44-.19.2-.19.49l-.13 8.52c0 1.26-.07 1.67-.45 1.79a2.41 2.41 0 0 1-.64.07c-.15 0-.24 0-.24.12s.13.14.32.14h3.34c.21 0 .34 0 .34-.14s-.1-.12-.25-.12a2.19 2.19 0 0 1-.75-.1c-.29-.1-.48-.47-.51-1.6Zm-8.89 3.83c0 1.4 0 2.54-.07 3.14 0 .42-.13.67-.42.73a3.14 3.14 0 0 1-.52.05c-.17 0-.23 0-.23.12s.1.14.29.14h4.06c.16 0 .27 0 .27-.14s-.07-.12-.23-.12-.53 0-.73-.05c-.43-.06-.53-.32-.58-.71v-8.69c0-.41.14-.75.53-.82a2.27 2.27 0 0 1 .43 0c.14 0 .23 0 .23-.14s-.11-.12-.3-.12c-.55 0-1.4.05-1.76.05s-1.32-.05-1.87-.05c-.23 0-.34 0-.34.12s.08.14.22.14a2.18 2.18 0 0 1 .52.06c.32.07.46.32.49.81s0 .86 0 3Z" fill="#005288"/>
            <path fill="none" stroke="#005288" stroke-width=".9" d="M.16 122.53h268.23"/>
        </g>
        <path d="M175.61 65.71a2.53 2.53 0 1 1-2.52-2.48 2.48 2.48 0 0 1 2.52 2.48Zm-4.43 0a1.92 1.92 0 0 0 1.92 2 1.89 1.89 0 0 0 1.88-2 1.9 1.9 0 1 0-3.8 0Zm1.52 1.28h-.57v-2.46a6.45 6.45 0 0 1 .94-.08 1.28 1.28 0 0 1 .84.2.61.61 0 0 1 .26.52.65.65 0 0 1-.51.59c.24.07.36.27.43.6a2.77 2.77 0 0 0 .18.6h-.6a2 2 0 0 1-.19-.6c-.05-.26-.2-.38-.51-.38h-.27Zm0-1.38h.27c.32 0 .57-.11.57-.36s-.16-.38-.52-.38a1.8 1.8 0 0 0-.32 0Z" fill="#9fa1a4"/>
    </g>
</svg>
